<svg width="80" height="80" viewBox="0 0 80 80" fill="none" xmlns="http://www.w3.org/2000/svg">
<path d="M65.4708 7.32202C62.9781 7.32238 60.5334 8.00678 58.4028 9.30066C56.2722 10.5945 54.5375 12.4483 53.3876 14.66C57.164 17.7287 60.2086 21.601 62.2997 25.9949C64.3909 30.3888 65.476 35.1938 65.476 40.06C65.476 44.9262 64.3909 49.7312 62.2997 54.1251C60.2086 58.519 57.164 62.3913 53.3876 65.46C54.7928 68.1661 57.0657 70.3221 59.8422 71.5825C62.6186 72.8428 65.7378 73.1345 68.6997 72.4108C71.6617 71.6871 74.2949 69.9899 76.1775 67.5912C78.06 65.1925 79.0828 62.2313 79.0819 59.182V20.938C79.0825 19.1501 78.7308 17.3797 78.047 15.7277C77.3632 14.0758 76.3607 12.5747 75.0968 11.3103C73.8328 10.0459 72.3321 9.04287 70.6805 8.35855C69.0288 7.67423 67.2586 7.32202 65.4708 7.32202Z" fill="#C8C5D4"/>
<path d="M51.8598 20.938C51.8625 18.7509 52.3943 16.597 53.4097 14.66C48.6095 10.752 42.7998 8.28482 36.6545 7.54471C30.5091 6.80459 24.2799 7.82181 18.6891 10.4784C13.0984 13.135 8.37522 17.3221 5.06735 22.5541C1.75948 27.7862 0.00243944 33.8488 2.53833e-06 40.0389C-0.00243437 46.2291 1.74983 52.2931 5.05358 57.5277C8.35733 62.7624 13.0772 66.9532 18.6658 69.6142C24.2545 72.2752 30.4829 73.2973 36.6289 72.562C42.7748 71.8268 48.5864 69.3642 53.3897 65.46C52.3743 63.523 51.8425 61.369 51.8398 59.182V20.938H51.8598ZM32.965 52.138C30.5305 52.1376 28.1508 51.4153 26.1269 50.0624C24.1029 48.7095 22.5255 46.7868 21.5941 44.5374C20.6628 42.288 20.4193 39.813 20.8945 37.4252C21.3697 35.0374 22.5422 32.8442 24.2637 31.1228C25.9853 29.4014 28.1786 28.2292 30.5663 27.7544C32.954 27.2795 35.4289 27.5234 37.678 28.4552C39.9271 29.387 41.8494 30.9648 43.2018 32.9891C44.5543 35.0134 45.2762 37.3934 45.2762 39.828C45.2762 43.0935 43.9792 46.2253 41.6704 48.5346C39.3617 50.8438 36.2303 52.1414 32.965 52.142V52.138Z" fill="#C8C5D4"/>
<path d="M65.4669 40.058C65.4717 35.1915 64.3893 30.3853 62.2988 25.9908C60.2082 21.5963 57.1623 17.7243 53.3836 14.658C52.3691 16.5952 51.838 18.7491 51.8357 20.936V59.154C51.838 61.3408 52.3691 63.4947 53.3836 65.432C57.1626 62.3716 60.209 58.5045 62.2998 54.114C64.3906 49.7236 65.4727 44.9209 65.4669 40.058V40.058Z" fill="#F2EFFB"/>
</svg>
