<svg width="80" height="80" viewBox="0 0 80 80" fill="none" xmlns="http://www.w3.org/2000/svg">
<path d="M63.8789 9.36438C61.5421 9.36471 59.2501 10.0063 57.2527 11.2194C55.2553 12.4324 53.6289 14.1703 52.5509 16.2438C56.0913 19.1207 58.9456 22.7509 60.9061 26.8702C62.8665 30.9895 63.8838 35.4942 63.8838 40.0562C63.8838 44.6183 62.8665 49.123 60.9061 53.2423C58.9456 57.3616 56.0913 60.9918 52.5509 63.8688C53.8683 66.4057 55.9992 68.427 58.6021 69.6085C61.205 70.7901 64.1292 71.0636 66.906 70.3851C69.6829 69.7066 72.1515 68.1155 73.9164 65.8667C75.6813 63.618 76.6402 60.8418 76.6394 57.9831V22.1294C76.6399 20.4532 76.3102 18.7934 75.6691 17.2447C75.0281 15.696 74.0882 14.2888 72.9033 13.1034C71.7183 11.918 70.3114 10.9777 68.763 10.3361C67.2146 9.69458 65.555 9.36438 63.8789 9.36438Z" fill="#C8C5D4"/>
<path d="M51.1185 22.1294C51.1211 20.079 51.6196 18.0597 52.5716 16.2437C48.0714 12.58 42.6248 10.267 36.8635 9.57318C31.1023 8.87932 25.2624 9.83296 20.0211 12.3235C14.7797 14.8141 10.3518 18.7395 7.25064 23.6445C4.14951 28.5496 2.50229 34.2333 2.5 40.0365C2.49772 45.8398 4.14046 51.5248 7.23773 56.4323C10.335 61.3398 14.7599 65.2687 19.9992 67.7633C25.2386 70.258 31.0778 71.2163 36.8396 70.5269C42.6014 69.8376 48.0497 67.529 52.5528 63.8687C51.6009 62.0528 51.1024 60.0335 51.0998 57.9831V22.1294H51.1185ZM33.4047 51.3794C31.1224 51.379 28.8914 50.7018 26.9939 49.4335C25.0965 48.1652 23.6177 46.3626 22.7445 44.2538C21.8714 42.145 21.6431 39.8247 22.0886 37.5861C22.5341 35.3476 23.6333 33.2914 25.2473 31.6776C26.8612 30.0638 28.9174 28.9649 31.1559 28.5197C33.3944 28.0746 35.7146 28.3032 37.8231 29.1768C39.9316 30.0503 41.7338 31.5295 43.0017 33.4273C44.2697 35.3251 44.9464 37.5563 44.9464 39.8387C44.9464 42.9002 43.7305 45.8362 41.566 48.0012C39.4016 50.1661 36.4659 51.3826 33.4047 51.3831V51.3794Z" fill="#C8C5D4"/>
<path d="M63.8752 40.0543C63.8797 35.492 62.865 30.9862 60.9051 26.8664C58.9452 22.7465 56.0897 19.1165 52.5471 16.2418C51.596 18.058 51.0981 20.0773 51.0959 22.1274V57.9568C51.0981 60.007 51.596 62.0263 52.5471 63.8425C56.0899 60.9734 58.946 57.348 60.9061 53.2319C62.8662 49.1158 63.8806 44.6133 63.8752 40.0543V40.0543Z" fill="#F2EFFB"/>
</svg>
