<svg width="80" height="80" viewBox="0 0 80 80" fill="none" xmlns="http://www.w3.org/2000/svg">
<g clip-path="url(#clip0_238_88)">
<path d="M12.9593 9.88972C11.5912 10.0791 10.2739 10.5363 9.08257 11.235C7.89124 11.9337 6.84926 12.8603 6.01615 13.9619C5.18304 15.0634 4.57515 16.3183 4.22719 17.6549C3.87923 18.9914 3.79803 20.3834 3.98823 21.7514L10.2031 66.1442L36.3603 6.62476L12.9593 9.88972Z" fill="#F2EFFB"/>
<path d="M76.0774 46.8767L73.6334 12.7515C73.4292 9.96917 72.1285 7.38184 70.0172 5.55835C67.9058 3.73486 65.1568 2.82449 62.3744 3.0274C62.1402 3.04475 61.9061 3.06932 61.6734 3.10111L51.6053 4.49729L73.7793 54.216C75.4466 52.1486 76.2678 49.5258 76.0774 46.8767Z" fill="#F2EFFB"/>
<path d="M19.7249 76.9349C21.5155 77.1361 23.3276 76.8712 24.9858 76.166L63.0582 60.0985L44.9586 19.5069L19.7249 76.9349Z" fill="#F2EFFB"/>
</g>
<defs>
<clipPath id="clip0_238_88">
<rect width="74" height="74" fill="white" transform="translate(3 3)"/>
</clipPath>
</defs>
</svg>
