<svg width="80" height="80" viewBox="0 0 80 80" fill="none" xmlns="http://www.w3.org/2000/svg">
<g clip-path="url(#clip0_237_110)">
<path d="M10.7668 7.44833C9.28783 7.65312 7.86369 8.14731 6.57577 8.90268C5.28784 9.65804 4.16137 10.6598 3.26072 11.8506C2.36006 13.0415 1.70288 14.3981 1.32671 15.8431C0.950537 17.288 0.862755 18.7929 1.06838 20.2718L7.78713 68.264L36.0652 3.91864L10.7668 7.44833Z" fill="#F2EFFB"/>
<path d="M79.0025 47.4343L76.3603 10.5421C76.1396 7.53422 74.7334 4.73711 72.4509 2.76576C70.1684 0.79442 67.1964 -0.189765 64.1885 0.0296045C63.9353 0.0483545 63.6822 0.074917 63.4306 0.109292L52.5463 1.61867L76.5181 55.3687C78.3206 53.1336 79.2084 50.2982 79.0025 47.4343V47.4343Z" fill="#F2EFFB"/>
<path d="M18.0809 79.9297C20.0167 80.1471 21.9758 79.8608 23.7684 79.0984L64.9278 61.7281L45.3606 17.8453L18.0809 79.9297Z" fill="#F2EFFB"/>
</g>
<defs>
<clipPath id="clip0_237_110">
<rect width="80" height="80" fill="white"/>
</clipPath>
</defs>
</svg>
