<svg width="16" height="16" viewBox="0 0 16 16" fill="none" xmlns="http://www.w3.org/2000/svg">
<path fill-rule="evenodd" clip-rule="evenodd" d="M10.7071 2.29289C10.3166 1.90237 9.68342 1.90237 9.29289 2.29289C8.90237 2.68342 8.90237 3.31658 9.29289 3.70711L12.5858 7L1 7C0.447715 7 0 7.44772 0 8C0 8.55228 0.447715 9 1 9L12.5858 9L9.29289 12.2929C8.90237 12.6834 8.90237 13.3166 9.29289 13.7071C9.68342 14.0976 10.3166 14.0976 10.7071 13.7071L15.7059 8.70828C15.71 8.70425 15.714 8.70019 15.718 8.69609C15.8919 8.51673 15.9992 8.2724 16 8.003C16 8.002 16 8.001 16 8C16 7.999 16 7.998 16 7.997C15.9996 7.8625 15.9727 7.73425 15.9241 7.61722C15.8753 7.49927 15.803 7.38877 15.7071 7.29289L10.7071 2.29289Z" fill="#938EA1"/>
</svg>
