<svg width="80" height="80" viewBox="0 0 80 80" fill="none" xmlns="http://www.w3.org/2000/svg">
<g clip-path="url(#clip0_242_94)">
<path fill-rule="evenodd" clip-rule="evenodd" d="M3.19102 5.29413L42.7233 13.804C55.043 16.0685 64.5728 26.4 65.7381 39.1747L77.647 51.0597L60.6742 59.4136C59.6166 60.0572 58.4859 61.0193 57.2819 62.2997L57.2816 62.2596C52.3753 67.0603 45.7462 70.0793 38.4199 70.2823C37.7391 70.3249 37.0317 70.3182 36.2971 70.2617C35.9169 70.2442 35.5332 70.2184 35.1517 70.1849C29.6493 69.8524 25.2938 70.2859 22.0847 71.4834C19.1376 72.9206 15.1651 73.9947 10.1689 74.7059L10.308 74.6057C10.2934 74.6125 10.2788 74.6193 10.2641 74.626C15.3187 68.5638 16.4007 62.56 13.5102 56.6147C10.9035 52.3029 9.40271 47.237 9.40271 41.8174C9.40271 40.2254 9.53222 38.6639 9.78119 37.143C9.85568 34.988 9.54516 33.1063 8.85126 31.4972L2.35291 19.61L11.2497 21.0255L3.19102 5.29413ZM37.6987 24.5114C28.1864 24.5114 20.4751 32.2904 20.4751 41.8864C20.4751 51.4823 28.1864 59.2614 37.6987 59.2614C47.2111 59.2614 54.9224 51.4823 54.9224 41.8864C54.9224 32.2904 47.2111 24.5114 37.6987 24.5114ZM37.7671 31.1304C43.6934 31.1304 48.4977 35.9769 48.4977 41.9553C48.4977 47.9338 43.6934 52.7802 37.7671 52.7802C31.8407 52.7802 27.0365 47.9338 27.0365 41.9553C27.0365 35.9769 31.8407 31.1304 37.7671 31.1304ZM42.2051 35.2392C41.5795 34.813 40.7297 34.9791 40.3072 35.6102C39.8847 36.2413 40.0493 37.0985 40.675 37.5248C42.371 38.6803 43.1845 40.241 43.1845 42.3516C43.1845 43.1132 43.7965 43.7306 44.5514 43.7306C45.3064 43.7306 45.9184 43.1132 45.9184 42.3516C45.9184 39.3292 44.6576 36.9101 42.2051 35.2392Z" fill="#F2EFFB"/>
</g>
<defs>
<clipPath id="clip0_242_94">
<rect width="75.2941" height="69.4118" fill="white" transform="translate(2.35291 5.29413)"/>
</clipPath>
</defs>
</svg>
