<svg width="80" height="80" viewBox="0 0 80 80" fill="none" xmlns="http://www.w3.org/2000/svg">
<path d="M69.3364 16.6512C67.9899 9.02557 63.4144 7.50002 59.736 7.50002C52.4692 7.50002 50.8549 11.7169 47.1776 23.2001L40.0891 45.1799H39.9096L32.8235 23.2001C29.1442 11.7169 27.5292 7.50002 20.264 7.50002C16.5855 7.50002 12.01 9.02557 10.6636 16.6512L4.92202 49.4859C3.75655 56.1255 2.5 63.3919 2.5 65.5425C2.5 68.7742 5.01149 72.4527 9.31872 72.4527C15.8668 72.4527 17.0339 67.7866 17.7509 62.8527L22.057 34.504H22.2368L32.015 65.903C33.451 70.5679 35.6036 72.4527 40.0004 72.4527C44.3947 72.4527 46.5485 70.5679 47.9834 65.903L57.7624 34.504H57.9418L62.2475 62.8527C62.9661 67.7866 64.1319 72.4527 70.6813 72.4527C74.9872 72.4527 77.5 68.7742 77.5 65.5425C77.5 63.3919 76.2435 56.1255 75.0772 49.4859L69.3364 16.6512" fill="#F2EFFB"/>
</svg>
