<svg width="80" height="80" viewBox="0 0 80 80" fill="none" xmlns="http://www.w3.org/2000/svg">
<path fill-rule="evenodd" clip-rule="evenodd" d="M40.5151 7.07995C50.1733 6.77598 59.1813 7.23204 65.872 10.3273C64.9668 11.6376 64.4336 13.2247 64.4336 14.9382C64.4336 19.4245 68.0694 23.0611 72.554 23.0611C73.8654 23.0611 75.1001 22.7429 76.1966 22.1907C76.8432 24.3632 77.237 26.8224 77.3265 29.6271C77.9257 48.4272 63.6872 72.4723 45.2064 73.5311C19.9567 74.9777 2.51088 46.6426 2.5 29.3892C2.48991 13.1769 20.8982 7.69723 40.5151 7.07995ZM58.1279 22.8045C30.8068 27.617 23.7019 43.1533 23.7019 43.1533C23.7019 43.1533 26.8235 41.4691 30.2413 40.7178C32.5122 40.2187 35.0502 40.2414 36.1039 40.2657L36.3354 40.2715L36.322 40.3606C36.234 40.9775 35.7726 44.7204 36.802 49.2293C38.1633 55.1915 43.3781 60.1338 43.3781 60.1338C45.1119 42.5013 49.7918 32.0106 58.1279 22.8045Z" fill="#F2EFFB"/>
<path fill-rule="evenodd" clip-rule="evenodd" d="M72.6693 10.106C75.3372 10.106 77.5 12.2695 77.5 14.9383C77.5 17.6071 75.3372 19.7706 72.6693 19.7706C70.0014 19.7706 67.8385 17.6071 67.8385 14.9383C67.8385 12.2695 70.0014 10.106 72.6693 10.106Z" fill="#F2EFFB"/>
</svg>
