<svg width="80" height="80" viewBox="0 0 80 80" fill="none" xmlns="http://www.w3.org/2000/svg">
<path fill-rule="evenodd" clip-rule="evenodd" d="M40.5454 4.951C50.7365 4.63026 60.2414 5.11148 67.3013 8.37754C66.3461 9.76013 65.7835 11.4348 65.7835 13.2428C65.7835 17.9765 69.6199 21.8138 74.3519 21.8138C75.7357 21.8138 77.0385 21.4781 78.1955 20.8954C78.8777 23.1878 79.2932 25.7826 79.3877 28.7421C80.02 48.5793 64.9959 73.951 45.4956 75.0681C18.8529 76.5946 0.444588 46.6962 0.43311 28.491C0.42246 11.3843 19.8464 5.60233 40.5454 4.951ZM59.1299 21.543C30.3015 26.6211 22.8047 43.0145 22.8047 43.0145C22.8047 43.0145 26.0985 41.2374 29.7049 40.4447C32.1011 39.918 34.779 39.9419 35.8909 39.9675L36.1351 39.9737L36.121 40.0677C36.0281 40.7186 35.5414 44.668 36.6275 49.4257C38.0639 55.7168 43.5664 60.9318 43.5664 60.9318C45.3958 42.3265 50.3339 31.257 59.1299 21.543Z" fill="#F2EFFB"/>
<path fill-rule="evenodd" clip-rule="evenodd" d="M74.4735 8.14392C77.2886 8.14392 79.5708 10.4268 79.5708 13.2428C79.5708 16.0588 77.2886 18.3418 74.4735 18.3418C71.6584 18.3418 69.3762 16.0588 69.3762 13.2428C69.3762 10.4268 71.6584 8.14392 74.4735 8.14392Z" fill="#F2EFFB"/>
</svg>
